<svg xmlns="http://www.w3.org/2000/svg" viewBox="0 0 467.172 138.509"><g id="Layer_2" data-name="Layer 2"><g id="Layer_1-2" data-name="Layer 1"><g id="QzUjwZ.tif"><path d="M58.381,33.012h17.9V42.46l.755.405c.524-.707,1-1.452,1.58-2.114,12.909-14.838,39.747-12.431,49.24,7.925,6.341,13.6,5.1,34.065-7.07,46.63-8.417,8.69-18.885,11.13-30.467,8.816-4.771-.954-8.394-4.26-11.749-7.686a6.523,6.523,0,0,0-2.364-1.813v43.886H58.381Zm53.586,35.815c-.04-8.924-1.332-14.445-3.988-18.77a15.774,15.774,0,0,0-25.846-1.908c-4.065,4.879-5.521,10.707-5.933,16.874-.461,6.887-.02,13.671,3.257,19.917,2.9,5.525,7.4,8.908,13.8,9.283,6.648.389,11.242-2.869,14.435-8.42A35.538,35.538,0,0,0,111.967,68.827Z"/><path d="M330.645,0H349.1V60.51l.724.473a11.945,11.945,0,0,0,2.518-1.715q11.238-12.906,22.381-25.9c.43-.5.9-.96,1.432-1.519l13.908,6.058L366.192,63.521,394.459,98.74l-17.21,5.978Q363.484,85.638,349.8,66.67l-.5.1V103.14H330.645Z"/><path d="M218.978,32.9h18.338v70.186h-18.3v-9.07c-1.931,1.715-3.42,3.089-4.963,4.4-9.267,7.866-25.365,8.947-34.775,2.273-5.156-3.656-7.739-8.927-8.264-15.043-.5-5.8-.531-11.638-.57-17.461-.079-11.662-.024-23.325-.024-35.192h18.478v2.617c0,13.331-.128,26.665.107,39.992a35.2,35.2,0,0,0,2.04,10.4,9.132,9.132,0,0,0,6.738,5.793c11.742,3.074,20.9-3.887,21.1-16.379.214-13.161.082-26.328.1-39.492C218.98,35.018,218.978,34.107,218.978,32.9Z"/><path d="M269.023,103.182H250.612V33.321h18.295v8.963c1.981-1.707,3.452-3.09,5.039-4.326,9.943-7.738,20.8-8.725,32.149-3.792,6.6,2.871,9.738,8.672,10.736,15.52a90.922,90.922,0,0,1,.692,12.445c.087,12.915.042,25.832.048,38.748v2.2H299.118c0-1.07,0-2.051,0-3.032-.06-14.165-.047-28.331-.213-42.494-.08-6.819-3.465-11.684-9.2-12.979-9.449-2.133-19.853,1.643-20.263,14.355-.44,13.651-.3,27.32-.415,40.982C269.016,100.906,269.023,101.9,269.023,103.182Z"/><path d="M0,96.836l5.906-9.6c1.992,1.376,3.788,2.692,5.658,3.892A16.523,16.523,0,0,0,23.18,93.892c3.424-.49,6.023-2.027,7.234-5.3,1.243-3.363.956-6.81-1.745-9.262-3.994-3.625-8.407-6.784-12.557-10.244-2.8-2.338-5.83-4.549-8.118-7.341C.065,52.066,3.605,38.619,15.722,33.6c11.022-4.562,21.8-2.792,32.212,3.2l-5.181,8.4c-3.125-1.105-5.995-2.49-9.019-3.066a14.754,14.754,0,0,0-7.081.415c-5.106,1.677-6.434,7.083-2.695,10.949,2.645,2.736,5.8,4.976,8.714,7.453,4.179,3.554,8.781,6.73,12.425,10.768,7.594,8.412,5.53,21.707-3.842,28.193-7.322,5.067-15.523,5.5-23.947,4.643C10.825,103.9,5.26,101.025,0,96.836Z"/><path d="M158.147,103.22H140.022V.013h18.125Z"/><path d="M410.663,101.379c0-3.983-.117-7.553.094-11.1.044-.748,1.159-1.678,2-2.1q19.4-9.725,38.862-19.324c.737-.366,1.463-.755,2.559-1.323-1.041-.544-1.789-.958-2.556-1.332-12.924-6.3-25.834-12.64-38.8-18.863a3.283,3.283,0,0,1-2.207-3.605c.149-3.151.041-6.314.041-9.81.976.392,1.717.629,2.4.974q25.874,12.969,51.753,25.926c1.518.757,2.247,1.576,2.126,3.367-.2,2.983.907,6.639-.457,8.8-1.423,2.25-5.089,3.121-7.826,4.492q-22.63,11.343-45.287,22.632C412.626,100.479,411.869,100.814,410.663,101.379Z"/></g></g></g></svg>